<mxfile host="app.diagrams.net" modified="2023-05-02T05:55:52.920Z" agent="Mozilla/5.0 (Macintosh; Intel Mac OS X 10_15_7) AppleWebKit/537.36 (KHTML, like Gecko) Chrome/112.0.0.0 Safari/537.36" version="21.2.3" etag="LhseKXyBHo9oC4HiRqTa" type="github">
  <diagram name="第 1 页" id="bgFwINNIwWS1ab6eXnST">
    <mxGraphModel>
      <root>
        <mxCell id="0" />
        <mxCell id="1" parent="0" />
      </root>
    </mxGraphModel>
  </diagram>
</mxfile>
